<svg xmlns="http://www.w3.org/2000/svg" viewBox="0 0 400 240" role="img" aria-label="Panneau Canadian Solar">
  <defs>
    <linearGradient id="cf" x1="0%" y1="0%" x2="0%" y2="100%">
      <stop offset="0%" stop-color="#b8bcc4"/>
      <stop offset="100%" stop-color="#7a7e86"/>
    </linearGradient>
  </defs>
  <rect x="20" y="30" width="360" height="180" rx="4" fill="url(#cf)" stroke="#003DA5" stroke-width="3"/>
  <rect x="28" y="38" width="344" height="164" rx="2" fill="#0a0a0a"/>
  <g fill="#141414" stroke="#0a0a0a" stroke-width="0.5">
    <rect x="32" y="42" width="40" height="50"/><rect x="76" y="42" width="40" height="50"/><rect x="120" y="42" width="40" height="50"/><rect x="164" y="42" width="40" height="50"/><rect x="208" y="42" width="40" height="50"/><rect x="252" y="42" width="40" height="50"/><rect x="296" y="42" width="40" height="50"/><rect x="340" y="42" width="28" height="50"/>
    <rect x="32" y="96" width="40" height="50"/><rect x="76" y="96" width="40" height="50"/><rect x="120" y="96" width="40" height="50"/><rect x="164" y="96" width="40" height="50"/><rect x="208" y="96" width="40" height="50"/><rect x="252" y="96" width="40" height="50"/><rect x="296" y="96" width="40" height="50"/><rect x="340" y="96" width="28" height="50"/>
    <rect x="32" y="150" width="40" height="48"/><rect x="76" y="150" width="40" height="48"/><rect x="120" y="150" width="40" height="48"/><rect x="164" y="150" width="40" height="48"/><rect x="208" y="150" width="40" height="48"/><rect x="252" y="150" width="40" height="48"/><rect x="296" y="150" width="40" height="48"/><rect x="340" y="150" width="28" height="48"/>
  </g>
  <rect x="8" y="8" width="24" height="16" fill="#C8102E" opacity="0.9"/>
  <rect x="145" y="200" width="110" height="14" rx="2" fill="#003DA5"/>
  <text x="200" y="222" text-anchor="middle" font-family="Arial,sans-serif" font-size="11" font-weight="700" fill="#003DA5">TOPHiKu6 · 620W</text>
</svg>
